<?xml version="1.0" encoding="UTF-8"?>
<!DOCTYPE svg PUBLIC "-//W3C//DTD SVG 1.1//EN" "http://www.w3.org/Graphics/SVG/1.1/DTD/svg11.dtd">
<!-- Creator: CorelDRAW 2019 (64-Bit) -->
<svg xmlns="http://www.w3.org/2000/svg" xml:space="preserve" width="184.183mm" height="186.583mm" version="1.1" style="shape-rendering:geometricPrecision; text-rendering:geometricPrecision; image-rendering:optimizeQuality; fill-rule:evenodd; clip-rule:evenodd"
viewBox="0 0 184.1846 186.5844"
 xmlns:xlink="http://www.w3.org/1999/xlink"
 xmlns:xodm="http://www.corel.com/coreldraw/odm/2003">
 <defs>
  <style type="text/css">
   <![CDATA[
    .fil6 {fill:#F1DB1A}
    .fil4 {fill:#F0D718}
    .fil3 {fill:#EDD417}
    .fil2 {fill:#EDD316}
    .fil1 {fill:#F2DF1A}
    .fil5 {fill:#AB190B}
    .fil0 {fill:black}
   ]]>
  </style>
 </defs>
 <g id="Layer_x0020_1">
  <metadata id="CorelCorpID_0Corel-Layer"/>
  <g id="_717086656">
   <path class="fil0" d="M101.2218 179.0268c-0.7309,2.191 -3.1116,7.5576 -8.8567,7.5576 -6.5253,0 -8.8025,-7.0694 -8.9131,-7.3595l-0.1868 -0.6778c0,0 5.6241,0.4671 8.7202,0.4671 3.0967,0 8.3866,-0.3003 9.2527,-0.4671l-0.0163 0.4797z"/>
   <path class="fil0" d="M118.3501 175.5415l1.3485 0.1791c-1.6005,4.1699 -4.4722,8.8447 -10.1153,8.8447 -5.4615,0 -8.1688,-3.1648 -9.3243,-5.2937l-0.9438 -0.5788c0.0011,-0.0014 9.4468,-0.3121 19.0349,-3.1513zm-51.7757 0l0 0 -1.3464 0.1791c1.5971,4.1699 4.4715,8.8447 10.1161,8.8447 5.4605,0 8.4108,-3.3423 9.6207,-5.2937l0.6445 -0.5788c-0.0012,-0.0014 -9.4447,-0.3121 -19.0349,-3.1513z"/>
   <path class="fil1" d="M96.943 179.4613c-0.8834,1.2812 -1.4739,1.2212 -2.5408,1.2212 -0.5336,0 -1.3351,0.4427 -1.3097,1.2438 0.0171,0.6283 0.5292,1.1533 1.4002,1.1533 1.9272,0 3.396,-2.6936 3.8092,-3.832 0,0 1.1412,-0.0496 1.4743,-0.0826 0,0 -2.0446,6.0845 -7.3418,6.0845 -5.3082,0 -7.4698,-6.019 -7.4698,-6.019 0,0 4.4664,0.2761 7.0261,0.2761 2.5599,0 4.1858,-0.0115 4.9522,-0.0453zm20.7007 -2.6766l0 0c-3.4632,0.9326 -5.9225,1.6867 -11.7355,2.3941 0,0 0.1813,0.6009 1.4454,0.5335 0.4861,-0.0239 0.5478,-0.1443 0.7281,-0.1773 0.3587,-0.0652 0.91,0.3112 0.8448,0.9437 -0.0474,0.4408 -0.4259,0.9984 -1.7134,0.9984 -1.2872,0 -2.7919,-1.0542 -3.5478,-2.0306 0,0 -0.7737,0.1775 -1.5731,0.2228 0,0 2.4733,3.4654 7.3544,3.4654 5.3706,0.0007 7.3525,-4.797 8.1972,-6.3501z"/>
   <path class="fil2" d="M114.0419 180.1721c0,-0.8403 -0.2591,-1.6184 -0.6999,-2.2625 -1.8797,0.4425 -4.0296,0.8485 -7.1791,1.2397 -0.0224,0.094 -0.0431,0.1879 -0.0621,0.2822 0.1896,0.1542 0.5582,0.3199 1.2528,0.283 0.4861,-0.0242 0.5478,-0.1444 0.7281,-0.1774 0.3587,-0.0651 0.91,0.3111 0.8448,0.9437 -0.0474,0.4408 -0.4259,0.9984 -1.7134,0.9984 -0.3312,0 -0.6801,-0.0695 -1.0238,-0.1918 0.1688,0.5851 0.4675,1.1143 0.8625,1.555 0.7824,0.1977 1.5863,0.2969 2.3935,0.2943 1.7218,0 3.0932,-0.4924 4.193,-1.2147 0.2664,-0.5448 0.4045,-1.1435 0.4035,-1.7499z"/>
   <path class="fil3" d="M113.9873 180.1721c0.0015,-0.8039 -0.2438,-1.5889 -0.7024,-2.249 -1.8552,0.4323 -3.9755,0.832 -7.0604,1.2168 -0.0297,0.1081 -0.0533,0.2172 -0.0721,0.3278 0.2016,0.1423 0.5641,0.2802 1.2034,0.2446 0.4861,-0.0239 0.5479,-0.1443 0.7282,-0.1773 0.3587,-0.0652 0.9098,0.3112 0.8447,0.9437 -0.0476,0.4408 -0.4261,0.9984 -1.7136,0.9984 -0.3108,0 -0.6367,-0.0623 -0.9592,-0.1686 0.1772,0.5894 0.4858,1.1186 0.8962,1.5573 0.6935,0.1685 1.4603,0.2696 2.2964,0.2696 1.674,0 3.0183,-0.4648 4.1022,-1.1553 0.2866,-0.5593 0.4365,-1.1792 0.4365,-1.808z"/>
   <path class="fil4" d="M113.9314 180.1721c0,-0.8319 -0.2594,-1.6036 -0.7044,-2.2362 -1.8282,0.4257 -3.9254,0.8192 -6.9437,1.1986 -0.0327,0.1194 -0.0623,0.2426 -0.0823,0.367 0.2097,0.1295 0.5641,0.2426 1.1533,0.2117 0.4861,-0.0241 0.5483,-0.1444 0.7289,-0.177 0.3581,-0.0651 0.9098,0.3112 0.844,0.9437 -0.0472,0.4409 -0.4257,0.9984 -1.7128,0.9984 -0.3044,-0.0042 -0.6068,-0.0542 -0.8963,-0.1486 0.1832,0.5915 0.505,1.1237 0.9288,1.5594 0.6694,0.1537 1.4024,0.2463 2.1996,0.2463 1.6267,0 2.9426,-0.4402 4.0094,-1.0974 0.3134,-0.5719 0.4773,-1.2138 0.4754,-1.8659z"/>
   <path class="fil1" d="M67.2841 176.7846c3.4611,0.9326 5.9212,1.6867 11.7346,2.3941 0,0 -0.1816,0.6009 -1.4455,0.5335 -0.4873,-0.0239 -0.5493,-0.1443 -0.7299,-0.1773 -0.3572,-0.0652 -0.9098,0.3112 -0.842,0.9437 0.046,0.4408 0.4238,0.9984 1.7108,0.9984 1.2876,0 2.7918,-1.0542 3.5469,-2.0306 0,0 0.7772,0.1775 1.5762,0.2228 0,0 -2.4742,3.4654 -7.3553,3.4654 -5.3706,0.0007 -7.3539,-4.797 -8.1959,-6.3501zm24.6382 -28.5472l0 0c-18.5042,0 -39.0069,-11.3583 -53.3823,-27.7343 -1.5542,-1.7681 -4.1953,-5.1247 -10.4528,-5.1247 -6.2578,0 -14.5759,5.7018 -13.5968,16.0846 0.7154,7.5703 11.5347,24.6298 30.0389,35.147 18.5057,10.517 35.5458,12.7796 47.3943,12.7796 11.8482,0 28.8886,-2.2626 47.3932,-12.7796 18.5038,-10.5172 29.3247,-27.5768 30.0381,-35.147 0.9793,-10.3828 -7.3395,-16.0846 -13.5956,-16.0846 -6.2576,0 -8.898,3.3557 -10.4523,5.1247 -14.377,16.376 -34.8802,27.7343 -53.3845,27.7343z"/>
   <path class="fil0" d="M91.9223 147.5722c8.9661,0 18.418,-2.7054 27.4041,-7.3741 9.3636,-4.8635 18.2114,-11.8508 25.4803,-20.1316 0.802,-0.9098 1.8785,-2.2295 3.6003,-3.3438 1.7318,-1.122 4.073,-2.0098 7.3521,-2.0098 0.3393,0 0.701,0.0189 1.0819,0.0537 3.0172,0.2858 6.3324,1.744 8.891,4.2826 2.5602,2.5412 4.368,6.1595 4.368,10.7575 0,0.5419 -0.0264,1.1143 -0.0846,1.7193 -0.41,4.347 -4.0216,11.6906 -10.4023,19.1594 -5.0095,5.8589 -11.7353,11.8224 -19.9682,16.5004 -9.315,5.2938 -18.2627,8.5127 -26.3702,10.4054 -14.0455,3.2821 -28.6585,3.2821 -42.7036,0 -8.1069,-1.8927 -17.0539,-5.1116 -26.3698,-10.4054 -8.2332,-4.6793 -14.9588,-10.6424 -19.9667,-16.5004 -6.3821,-7.4688 -9.9941,-14.8123 -10.4044,-19.1594 -0.055,-0.5715 -0.0828,-1.1451 -0.0843,-1.7193 0,-4.598 1.8083,-8.2163 4.369,-10.7575 2.5568,-2.5386 5.8715,-3.9968 8.8872,-4.2826 0.3825,-0.0348 0.7454,-0.0537 1.0849,-0.0537 3.2767,0 5.6207,0.8878 7.3505,2.0098 1.7229,1.1143 2.8003,2.434 3.6007,3.3438 7.2695,8.2808 16.1196,15.2672 25.4807,20.1316 8.9863,4.6686 18.4363,7.3741 27.4032,7.3741zm0 1.3303l0 0c-9.185,0 -18.8458,-2.7593 -28.0175,-7.5224 -9.5009,-4.9363 -18.4836,-12.032 -25.8657,-20.4383 -0.754,-0.8582 -1.7735,-2.1022 -3.3246,-3.1069 -1.5423,-0.9984 -3.6477,-1.7892 -6.6286,-1.7892 -0.32,-0.0004 -0.6402,0.014 -0.9594,0.0431 -2.7325,0.2575 -5.7437,1.5878 -8.0762,3.902 -2.329,2.3121 -3.9735,5.6113 -3.9735,9.8169 0,0.5333 0.0242,1.0651 0.0737,1.5943 0.3878,4.1137 3.8904,11.1652 10.0919,18.4222 4.9193,5.7556 11.5269,11.6145 19.6135,16.2104 9.1899,5.2218 18.0167,8.3956 26.0168,10.2625 6.9005,1.6127 13.9634,2.4274 21.0496,2.4282 7.0863,-0.0008 14.1493,-0.8155 21.0497,-2.4282 8.0022,-1.8669 16.8288,-5.0407 26.0164,-10.2625 8.0875,-4.5958 14.6954,-10.4548 19.6149,-16.2125 6.2021,-7.257 9.7055,-14.305 10.092,-18.4201 0.05,-0.5275 0.0735,-1.061 0.0735,-1.5943 0,-4.2045 -1.6458,-7.5036 -3.9744,-9.8169 -2.3315,-2.3142 -5.3433,-3.6445 -8.0766,-3.902 -0.3187,-0.0291 -0.6386,-0.0435 -0.9586,-0.0431 -2.9798,0 -5.087,0.7908 -6.6289,1.7892 -1.5516,1.0047 -2.5712,2.2487 -3.3233,3.1069 -7.3825,8.4063 -16.3636,15.502 -25.8658,20.4363 -9.1708,4.765 -18.8325,7.5244 -28.0189,7.5244z"/>
   <path class="fil5" d="M36.4606 122.1302l-0.2162 -0.2446c-1.4726,-1.6911 -3.491,-4.0095 -8.31,-4.0095 -2.8108,0 -5.9939,1.5034 -8.1088,3.8283 -1.5817,1.7355 -3.3752,4.7876 -2.9345,9.4538 0.6013,6.376 10.725,22.9105 28.7526,33.1575 14.5307,8.2579 30.0498,12.4465 46.1268,12.4465 16.0773,0 31.5951,-4.1886 46.1276,-12.4465 18.0261,-10.247 28.1514,-26.7816 28.7526,-33.1575 0.4377,-4.6661 -1.3535,-7.7176 -2.9368,-9.4538 -2.1126,-2.3249 -5.2976,-3.8283 -8.107,-3.8283 -4.8181,0 -6.8367,2.3184 -8.3107,4.0095l-0.2147 0.2446c-15.4936,17.6453 -36.6875,28.6049 -55.3109,28.6049 -18.6224,0 -39.8175,-10.9588 -55.3098,-28.6049z"/>
   <path class="fil1" d="M151.369 101.3176c0,-8.8784 7.194,-16.076 16.0741,-16.076 8.8799,0 16.0768,7.1976 16.0768,16.076 0,8.8776 -7.1969,16.0746 -16.0768,16.0746 -8.8801,0 -16.0741,-7.197 -16.0741,-16.0746z"/>
   <path class="fil0" d="M150.7013 101.3176c0,-4.623 1.873,-8.8085 4.904,-11.8388 3.027,-3.0302 7.2149,-4.9036 11.8377,-4.9036 4.6228,0 8.8093,1.8734 11.839,4.9036 3.0296,3.0303 4.9025,7.2158 4.9025,11.8388 0,4.6233 -1.8743,8.8079 -4.9025,11.8372 -3.0297,3.0289 -7.2162,4.9023 -11.839,4.9023 -4.6228,0 -8.8081,-1.8734 -11.8377,-4.9023 -3.1446,-3.1352 -4.9096,-7.3958 -4.904,-11.8372zm1.3313 0l0 0c0,4.2541 1.726,8.1067 4.5133,10.8955 2.7873,2.7889 6.6414,4.5137 10.8956,4.5137 4.2544,0 8.1069,-1.7261 10.8971,-4.5137 2.8952,-2.8866 4.5189,-6.8077 4.5147,-10.8955 0.0042,-4.0878 -1.6195,-8.0092 -4.5147,-10.8962 -2.7886,-2.7885 -6.6427,-4.5134 -10.8971,-4.5134 -4.2542,0 -8.107,1.7249 -10.8956,4.5134 -2.8952,2.8866 -4.5188,6.8084 -4.5133,10.8962z"/>
   <path class="fil1" d="M0.6649 101.3429c0,-8.8762 7.1983,-16.0739 16.0768,-16.0739 8.8772,0 16.0754,7.1977 16.0754,16.0739 0,8.8799 -7.1982,16.0768 -16.0754,16.0768 -8.8785,0 -16.0768,-7.1969 -16.0768,-16.0768z"/>
   <path class="fil0" d="M-0 101.3429c0,-4.6207 1.8735,-8.8064 4.9036,-11.8365 3.1363,-3.1441 7.3967,-4.9083 11.838,-4.9028 4.622,0 8.8077,1.8748 11.8367,4.9028 3.1441,3.1361 4.9083,7.3962 4.9028,11.8365 0,4.6235 -1.8735,8.8092 -4.9028,11.8395 -3.1361,3.1445 -7.3958,4.9095 -11.8367,4.9044 -4.6234,0 -8.8078,-1.8756 -11.838,-4.9044 -3.0301,-3.0294 -4.9036,-7.2172 -4.9036,-11.8395zm1.3306 0l0 0c-0.006,4.0884 1.6187,8.0107 4.5133,10.8977 2.8871,2.8942 6.8085,4.5189 10.8963,4.5134 4.2556,0 8.1067,-1.7257 10.8955,-4.5134 2.8948,-2.887 4.5193,-6.8093 4.5135,-10.8977 0,-4.2541 -1.7245,-8.1065 -4.5135,-10.8954 -2.7888,-2.7885 -6.6399,-4.5133 -10.8955,-4.5133 -4.0878,-0.0056 -8.0092,1.6192 -10.8963,4.5133 -2.8939,2.8871 -4.5183,6.8081 -4.5133,10.8954z"/>
   <path class="fil0" d="M171.8428 58.0798l0.0886 -4.3053c1.3147,0.9932 3.8165,1.032 5.2809,-0.5334 0.6734,-0.7134 1.0502,-1.805 0.9905,-2.9465 -0.083,-1.3341 -0.6525,-2.592 -1.5985,-3.5354 -5.4139,-5.2754 -10.2003,-10.5493 -10.2003,-10.5493 -0.4835,-0.7799 -1.2799,-1.3562 -1.7149,-1.5501 -0.6776,-0.302 -3.0187,-1.3729 -4.8043,1.3423 -1.6181,2.4618 -1.3785,5.9459 -1.0876,7.2107l5.08 6.9018c1.7317,2.1957 6.615,6.8776 7.9657,7.9654zm-108.2399 -44.7653l0 0c6.3832,-2.1389 12.2082,-3.9052 20.062,-4.6034l-20.062 4.6034z"/>
   <path class="fil0" d="M63.6029 13.3324c6.3832,-2.1431 12.2082,-3.9052 20.062,-4.6048l1.1966 -0.676c-4.391,-3.4508 -8.7478,-5.799 -13.084,-5.799 -2.7233,0 -8.2587,1.8466 -9.5027,11.6104l1.3281 -0.5306zm56.6565 0l0 0c-6.3837,-2.1431 -12.2066,-3.9052 -20.0607,-4.6048l-1.1964 -0.676c4.39,-3.4508 8.7456,-5.799 13.0819,-5.799 2.7245,0 8.2617,1.8466 9.5039,11.6104l-1.3287 -0.5306zm-33.5663 -5.5857l0 0c1.2977,-0.0665 4.2931,-0.133 5.4918,-0.133 1.1968,0 4.5061,0.158 5.2306,0.2134l-10.7223 -0.0804z"/>
   <path class="fil0" d="M84.7151 8.3965c3.2104,-6.155 6.1518,-8.3965 7.7787,-8.3965 2.0348,0 4.4177,3.2389 6.2848,7.4074l0.3956 0.9379 -1.625 -0.1344c-1.1058,-0.1981 -4.1675,-0.2313 -5.3644,-0.2313 -1.1986,0 -3.7942,0 -5.3593,0.133l-2.1104 0.2839z"/>
   <path class="fil1" d="M78.4336 154.1162l-2.8744 10.7229 -5.3582 -12.9275 -3.3343 -0.8937 -4.0638 15.162 3.6173 0.9699 2.8965 -10.8088 5.4436 13.043 3.249 0.8709 4.0626 -15.1645 -3.6383 -0.9742zm12.4892 1.9158l0 0 -4.1213 -0.2158 -0.8201 15.6743 4.1206 0.2164 0.8208 -15.6749zm3.7006 -0.1338l0 0 0.2889 2.0653 4.3965 -0.6199 1.8946 13.4796 4.0866 -0.5746 -1.8956 -13.4774 4.3301 -0.6097 -0.2881 -2.0631 -12.8131 1.7998zm42.5238 -6.3903l0 0c1.9947,3.4982 1.5931,6.0431 -1.4851,7.821l-1.4601 0.8424 -5.7724 -9.994 1.5775 -0.912c3.685,-2.1267 5.7631,-0.2341 7.1401,2.2426zm-8.0294 -4.1445l0 0 -5.3189 3.07 7.8747 13.6408 5.2796 -3.048c5.4943,-3.1733 6.0026,-7.9609 3.8483,-11.7851 -2.6001,-4.5492 -6.8711,-4.6559 -11.6837,-1.8777zm-9.9643 19.3131l0 0 5.6736 -1.8452 0.6524 2.0056 -9.6209 3.1237 -4.8498 -14.927 8.7236 -2.835 0.6441 1.984 -4.7793 1.5509 1.3379 4.116 4.6509 -1.5105 0.6523 2.0052 -4.6516 1.5118 1.5669 4.8204zm-59.7193 -17.2952l0 0 3.7525 2.0792 -4.9416 8.9163c-2.6907,4.8552 -6.8384,3.6774 -9.6945,2.094 -2.6525,-1.4699 -6.0754,-4.4862 -3.3612,-9.3835l4.9205 -8.8751 3.7532 2.0799 -4.658 8.4062c-1.4357,2.5923 -1.9789,4.5322 0.3679,5.8313 2.3651,1.3653 3.8104,-0.235 5.213,-2.7635l4.6482 -8.3848zm-2.6588 -92.2022l0 0c0.5198,-0.5652 3.5603,-3.1198 5.0923,-4.1934l59.9459 0c1.8426,1.1291 4.1835,3.3123 5.2981,4.3098l-0.0453 73.3807 -35.1449 22.5923 -35.146 -22.5923 0 -73.4971z"/>
   <polygon class="fil0" points="57.4406,55.1791 57.4406,128.3148 91.9215,150.4802 126.4019,128.3148 126.4453,55.2955 127.7781,55.2955 127.7326,128.6763 127.7326,129.0371 127.4257,129.2352 92.2797,151.8287 91.9215,152.0593 91.5617,151.8287 56.4167,129.2352 56.1091,129.0371 56.1091,55.1791 "/>
   <path class="fil0" d="M126.6674 55.7928c-0.3171,-0.284 -0.0779,-0.0734 -0.4139,-0.3768l-0.0044 0c-1.199,-1.0833 -3.2084,-2.8995 -4.7833,-3.8623l0.6933 -1.1332c1.701,1.0418 3.7578,2.9009 4.9864,4.0077l-0.0044 0 0.4164 0.3713 -0.8901 0.9933z"/>
   <polygon class="fil0" points="61.8678,51.6521 121.8136,51.6521 121.8136,50.3214 61.8678,50.3214 "/>
   <path class="fil0" d="M62.2494 51.5329c-0.718,0.5043 -1.7313,1.3008 -2.6579,2.0628 -1.0849,0.8935 -2.0645,1.7455 -2.3278,2.0336l-0.9777 -0.8991c0.2932,-0.3213 1.3286,-1.2246 2.4632,-2.1597 0.9857,-0.8118 2.0371,-1.6416 2.7346,-2.1306l0.7656 1.093z"/>
   <path class="fil5" d="M94.405 86.6162c-0.2443,-0.1075 -1.1194,0.5979 -1.5192,1.2305 -0.3994,0.6325 -0.5164,1.4473 0.0496,1.7467 0.5661,0.2999 1.2791,-0.0884 1.4496,-1.0804 0.0983,-0.5831 0.2879,-1.7807 0.02,-1.8968zm-6.7273 1.8955l0 0c0.1467,0.9976 0.8811,1.3816 1.4477,1.0809 0.566,-0.2994 0.4502,-1.1144 0.0505,-1.7469 -0.4007,-0.6325 -1.224,-1.3378 -1.4698,-1.2303 -0.2665,0.1169 -0.1115,1.3316 -0.0284,1.8963zm3.5278 9.7769l0 0c1.1807,-1.9377 1.6718,-3.9514 1.6718,-3.9514l-3.3776 0c0,0 0.5406,2.0631 1.7058,3.9514zm0.5819 -14.5583l0 0 2.7285 -4.7481 2.1296 4.7481 3.5298 0c-2.1305,1.9981 -2.9963,5.0147 -2.9963,7.0127l0 2.1962c0,0.933 -0.4647,2.4627 -0.4647,2.4627 0,0 3.0553,2.3355 3.5274,2.7288 0.1994,0.1664 0.4104,0.2632 0.2661,0.6672 -0.2428,0.6872 -2.308,1.6076 -2.5287,1.7956 -0.4648,0.3993 -0.5915,0.6609 -0.4555,1.067 0.1343,0.397 0.5212,0.4648 1.3201,0.1981 0.7994,-0.2659 2.4628,-1.1304 3.863,-1.7304 1.3959,-0.5986 3.2603,-0.467 3.2603,-0.467l0 -2.6597 -5.2571 0 0 -8.5212 -0.9331 -1.4877 2.3313 -4.1275 2.3269 4.1508 -0.9311 1.4633 0 4.4599 2.6956 0 0 -4.4599 -0.931 -1.4633 2.329 -4.129 2.3292 4.129 -0.931 1.4633 0 4.4599 2.6961 0 0 -4.4599 -0.9312 -1.4633 2.329 -4.129 2.3293 4.129 -0.9332 1.4633 0.0284 8.5146 -5.2864 0.0022 0 3.9125c1.1984,1.1305 2.3309,3.6797 2.3309,5.2095 0,1.5319 -0.9981,2.1974 -0.9981,2.1974 0.331,1.1986 0.2653,1.6964 0.1315,2.796 -0.1359,1.1215 -1.5318,2.8603 -1.5318,2.8603l0 20.2958c0,1.3823 -3.1934,1.2503 -3.1934,0.0673l0 -19.8959c-1.7978,-1.9958 -6.7237,-3.5277 -6.7237,-3.5277 -1.7978,1.7951 -2.9277,4.9256 -2.9277,4.9256 0.799,0.5335 1.9978,0 2.4627,-0.5335 0.465,-0.5313 1.3982,-0.6655 1.9316,-0.3331 0.5315,0.3331 0.6652,0.467 0.465,1.2664 -0.1995,0.7967 -0.5335,2.1231 -0.5335,3.0528 0,0.9333 1.0669,0.7309 1.864,0.7995 1.5984,0.1338 1.8639,1.9293 1.7322,2.9277 -0.1338,0.9983 -0.5987,3.1302 -0.5987,4.46 0,1.3294 0.0652,2.6618 0.1989,3.396 0.1322,0.7304 0.3998,1.5297 0.3313,2.4628 -0.0907,1.2618 -0.8646,1.464 -1.6637,0.6651 -0.7971,-0.7993 -11.915,-12.6475 -11.915,-12.6475 -0.7316,2.3943 2.3292,6.5241 3.3287,7.7884 0.9983,1.2659 0.9305,2.197 0.0673,3.0615 -0.8668,0.8646 -2.5304,1.3306 -2.8625,2.1309 -0.3331,0.7988 0.7993,3.1936 3.1281,6.1879 2.3289,2.9963 -2.6631,4.993 -5.6581,5.5931 -2.9955,0.599 -2.9955,-1.4667 -2.7953,-2.5967 0.198,-1.1326 0.198,-1.7977 0.133,-2.7961 -0.0665,-0.9962 -0.9984,-2.3942 -2.264,-4.061 -1.2652,-1.6619 -1.2652,-3.1938 -0.7317,-7.0547 0.5327,-3.8587 0.3998,-6.3238 0.3998,-6.3238 0,0 -1.3316,0.0673 -3.2622,0 -1.9302,-0.0656 -3.5277,-1.1906 -3.6606,-5.8505 -0.1325,-4.6602 -0.2433,-15.7738 -0.5546,-16.9297 -0.31,-1.1533 -1.553,-1.3756 -2.0852,-1.5078 -0.5328,-0.1337 -0.5716,-0.9326 -0.0389,-1.1986 1.3861,-0.6934 3.0564,-2.3963 2.4354,-3.4612 -0.6213,-1.0659 -3.0617,-0.8446 -4.7036,-0.0453 -1.6414,0.7991 -3.3727,2.5281 -3.8163,3.0185 -0.4442,0.488 -0.7994,0.488 -0.7551,-0.0453 0.0442,-0.5335 -0.3098,-3.0615 -0.5311,-3.9495 -0.2215,-0.8877 -1.0218,-2.5723 -1.2875,-3.0165 -0.2655,-0.4435 0,-0.6206 0.444,-0.4435 0.4438,0.1781 1.4199,0.5778 2.3518,0.8432 0.9326,0.266 1.819,-0.1769 2.2628,-1.0648 0.4441,-0.8879 1.2861,-2.7948 1.7304,-3.6386 0.4436,-0.8434 1.154,-0.6659 1.7311,-0.5323 0.5775,0.1332 1.1102,0.4882 1.6416,0.7097 0.5322,0.2222 0.9762,0.1783 1.1534,-0.0885 0.1779,-0.266 0.4003,-0.3557 0.7101,-1.0217 0.3106,-0.6655 0.7098,-0.3543 0.754,-0.0889 1.5912,9.5469 5.7254,9.9856 5.7254,9.9856 -0.6211,1.5962 -2.0857,4.1269 -2.4401,4.7488 -0.3551,0.6199 -0.4881,1.4623 -0.5765,2.1296 -0.0887,0.6651 0.2214,6.964 0.6654,9.2749 0.4446,2.307 1.8651,1.4212 2.3078,0.7107 0.4426,-0.7107 1.8198,-3.6385 1.8198,-3.6385 0,0 0.3554,-0.7994 0.3554,-1.4666 0,-0.6651 -1.1547,-2.1297 -1.4216,-2.5734 -0.2653,-0.4428 -1.2418,-1.3308 -1.2418,-3.55 0,-2.2182 1.9969,-3.7724 2.7073,-4.3491 0.7096,-0.5767 0.7096,-1.3738 0.6212,-1.862 -0.3121,-1.7173 -2.131,-5.3263 -3.0176,-6.7023 -0.8878,-1.3748 -2.6178,-3.9939 -2.6178,-3.9939l3.5941 0 2.308 -4.7926 2.5292 4.8151 2.6138 0.0228zm14.1782 24.1854l0 0 0 -2.7288c0,0 -0.7325,-1.1321 -2.5301,-1.1321 -1.7957,0 -2.8604,0.5335 -2.8604,0.9983 0,0.7338 1.5973,2.8626 5.3906,2.8626zm-46.4374 -34.4038l0 0 64.8409 0 0 4.423 -64.8409 0 0 -4.423zm0 -2.2728l0 0 0 -17.6157 64.8409 0 0 17.6157 -64.8409 0z"/>
   <polygon class="fil1" points="111.6067,71.7628 111.6067,68.7559 106.8968,68.7559 106.8968,66.8172 110.7413,66.8172 110.7413,58.297 107.2122,58.297 106.0134,55.9687 104.8147,58.297 101.2877,58.297 101.2877,66.8172 105.1299,66.8172 105.1299,68.7559 95.9047,68.7559 95.9047,66.8172 99.7474,66.8172 99.7474,58.297 96.2197,58.297 95.0211,55.9687 93.8233,58.297 90.2957,58.297 90.2957,66.8172 94.1375,66.8172 94.1375,68.7559 84.7319,68.7559 84.7319,66.8172 88.5751,66.8172 88.5751,58.297 85.0461,58.297 83.8482,55.9687 82.6507,58.297 79.122,58.297 79.122,66.8172 82.9639,66.8172 82.9639,68.7559 75.5277,68.7759 68.1176,67.0451 69.6118,71.7628 "/>
   <path class="fil1" d="M70.6767 66.6623l4.9689 1.2206 2.6656 -7.4812 0.0008 -1.8863 -7.6354 8.1469zm11.9909 -58.4265l0 0c-7.6979,0.6844 -12.4346,2.3205 -18.6911,4.4178 0.4648,-2.6916 1.0911,-4.2875 2.1783,-5.8724 -0.0876,1.3922 1.0487,2.8745 3.3105,2.8745 2.2612,0 3.5205,-1.3036 3.5205,-2.0877 0,-0.7813 -0.4756,-1.9131 -1.6937,-1.9131 -1.2176,0 -1.4781,0.8686 -1.3917,1.2177 0.0876,0.3477 -0.1738,0.435 -0.5208,0.5222 -0.3489,0.0873 -1.3052,-0.4363 -0.9573,-1.6526 0.3822,-1.3382 2.0001,-2.0655 3.9127,-2.0655 -0.0009,-0.0028 4.5514,-0.1843 10.3325,4.559zm37.2743 4.4704l0 0c-6.2559,-2.0987 -11.2063,-3.7334 -18.904,-4.4191 3.5438,-2.4686 6.8535,-4.566 10.4896,-4.566 1.9124,0 3.5319,0.7273 3.9124,2.0655 0.3482,1.2177 -0.6091,1.7386 -0.9572,1.6513 -0.3459,-0.0887 -0.607,-0.1745 -0.5209,-0.5223 0.0865,-0.3463 -0.1747,-1.2177 -1.3915,-1.2177 -1.2168,0 -1.6924,1.1305 -1.6924,1.9132 0,0.7841 1.258,2.0876 3.5198,2.0876 2.2613,0 3.3977,-1.4836 3.3113,-2.8745 1.0859,1.5862 1.7679,3.1904 2.2328,5.8821zm-32.5308 -5.9015l0 0c-0.2071,0.3297 -0.3881,0.5749 -0.6096,0.9434 1.793,-0.0762 3.5871,-0.1205 5.3814,-0.1316 1.1757,0 4.4167,0.1566 5.1274,0.2092 -1.1472,-2.6557 -3.3119,-6.3227 -4.8237,-6.3227 -0.2981,0 -0.9582,-0.1551 -2.2004,1.2745 0,0 -0.1925,0.6317 0.5957,0.5098 0.9995,-0.1524 1.3781,0.8797 1.3044,1.3922 -0.1754,1.1956 -1.5656,2.3482 -2.9585,2.3482 -1.3905,0 -1.8165,-0.2231 -1.8165,-0.2231z"/>
   <path class="fil0" d="M20.3633 50.1144l5.0793 -6.9018c0.2922,-1.2648 0.5328,-4.7488 -1.0867,-7.2107 -1.7859,-2.7152 -4.1289,-1.6443 -4.8067,-1.3423 -0.4343,0.1939 -1.2291,0.7702 -1.7151,1.5501 0,0 -4.8732,5.3862 -10.2652,10.6851 -0.7494,0.737 -1.5953,2.1306 -1.6634,3.3982 -0.0637,1.1415 0.3843,2.2788 1.055,2.9936 1.4666,1.5627 4.0349,1.4809 5.3466,0.4877l0.0885 4.3053c1.3562,-1.0878 6.2367,-5.7697 7.9678,-7.9654z"/>
   <path class="fil1" d="M91.9223 40.0569c28.9338,0 45.4105,27.1702 48.9916,31.9436 6.3919,8.5198 14.1969,15.4287 23.2527,13.1343 13.3116,-3.3713 12.6023,-23.0961 12.6023,-23.0961 -3.1931,-2.3086 -8.6736,-5.2158 -18.6381,-19.3483 -9.7625,-13.845 -31.8626,-34.3867 -66.2085,-34.3867 -34.3476,0 -56.4473,20.5417 -66.2093,34.3867 -9.9645,14.1317 -15.4428,17.0397 -18.6373,19.3483 0,0 -0.7097,19.7248 12.6029,23.0961 9.0561,2.2943 16.8634,-4.6145 23.2537,-13.1343 3.5792,-4.7734 20.0573,-31.9436 48.99,-31.9436z"/>
   <path class="fil0" d="M91.9223 39.3919c26.9044,0 43.1163,23.1067 48.3917,30.625 0.478,0.6811 0.866,1.2344 1.1304,1.5846 3.1503,4.2025 6.6456,8.0046 10.4538,10.462 3.7334,2.4105 7.78,3.5226 12.1064,2.4274 11.8195,-2.9942 12.1243,-19.576 12.1021,-22.1084 -0.2521,-0.1803 -0.5333,-0.3733 -0.8269,-0.5757 -3.3484,-2.3108 -8.7304,-6.0251 -17.6936,-18.7355 -5.6022,-7.9477 -15.3078,-18.1201 -29.0948,-25.2808 -10.0283,-5.2075 -22.2186,-8.8218 -36.57,-8.8218 -14.3515,0 -26.5442,3.6143 -36.5717,8.8218 -13.7864,7.1608 -23.4901,17.3319 -29.0943,25.2808 -8.9635,12.7132 -14.3449,16.4255 -17.6956,18.7368 -0.2931,0.2023 -0.5715,0.3941 -0.8255,0.5732 -0.022,2.5315 0.2824,19.1131 12.1033,22.1082 4.3271,1.0966 8.3718,-0.0165 12.1061,-2.4268 3.808,-2.4577 7.3031,-6.2594 10.4557,-10.462 0.2625,-0.3501 0.6516,-0.9035 1.1292,-1.5838 5.2772,-7.5176 21.4905,-30.625 48.3935,-30.625zm0 1.3313l0 0c-26.2137,0 -42.1286,22.6798 -47.3054,30.059 -0.3773,0.5438 -0.7621,1.0823 -1.1546,1.6153 -3.2377,4.3178 -6.8425,8.2311 -10.7981,10.7851 -4.0307,2.6009 -8.418,3.7965 -13.1468,2.5975 -13.839,-3.5056 -13.1093,-23.7011 -13.1073,-23.7604l0.0097 -0.3255 0.269 -0.1952c0.3635,-0.2625 0.7259,-0.5135 1.1194,-0.7833 3.2737,-2.2595 8.5338,-5.8857 17.3628,-18.4091 5.6964,-8.0779 15.5609,-18.4193 29.5727,-25.6951 10.2007,-5.299 22.5976,-8.9728 37.1799,-8.9728 14.5813,0 26.9782,3.6738 37.1805,8.9728 14.0097,7.2758 23.8762,17.6159 29.5726,25.6951 8.8273,12.5192 14.0861,16.1496 17.3582,18.4071 0.3935,0.2709 0.7593,0.5228 1.1222,0.7853l0.27 0.1952 0.0084 0.3255c0.0028,0.0581 0.7315,20.2548 -13.1066,23.7604 -4.728,1.1977 -9.1155,0.002 -13.144,-2.5975 -3.9579,-2.554 -7.5625,-6.4673 -10.8013,-10.7851 -0.3257,-0.433 -0.6954,-0.9644 -1.1555,-1.6153 -5.1783,-7.3792 -21.0917,-30.059 -47.3056,-30.059z"/>
   <path class="fil5" d="M91.9223 37.494c27.8921,0 44.4921,23.6603 49.9502,31.4351 0.3561,0.5156 0.7191,1.0267 1.0904,1.5327 7.3795,9.8392 14.1122,13.8267 20.5735,12.189 9.3468,-2.368 10.4965,-15.2306 10.6254,-19.1171l0.0041 -0.1464 -0.1191 -0.0821c-3.2859,-2.2681 -8.7927,-6.0627 -18.0093,-19.1381 -5.5095,-7.8119 -26.4128,-33.2992 -64.1152,-33.2992 -37.7025,0 -58.6044,25.4873 -64.1136,33.2992 -9.1558,12.9827 -14.9009,16.9491 -17.9878,19.081l-0.1203 0.0824 0.0043 0.1466c0.1337,3.9011 1.2947,16.8142 10.6026,19.1737 6.4639,1.6385 13.1937,-2.3498 20.5717,-12.189 0.2701,-0.3582 0.6508,-0.9014 1.0923,-1.5319 5.4563,-7.7756 22.0566,-31.4359 49.9508,-31.4359z"/>
   <path class="fil1" d="M31.91 48.3924l-2.9119 3.4702 5.4605 11.2864 -11.7171 -3.8293 -2.5081 2.9879 12.0257 10.0899 1.8167 -2.1643 -8.4896 -7.1516 11.3868 3.6996 1.1964 -1.4256 -5.4254 -10.8747 8.5389 7.1625 2.6518 -3.1606 -12.0247 -10.0904zm15.2022 -2.3619l0 0 -2.7232 2.9188 -2.7896 -5.3917 5.5129 2.4728zm-6.3436 -7.1262l0 0 15.411 6.4917 -3.0288 3.2471 -4.1069 -1.7441 -3.6396 3.9039 2.0427 3.9592 -1.8359 1.9673 -7.5197 -14.9547 2.6773 -2.8704zm18.3613 -14.2079l0 0 5.8831 9.4147 -13.1095 -4.8985 -2.9299 1.83 8.3197 13.3116 3.1752 -1.9824 -5.9294 -9.4909 13.2516 4.9151 2.852 -1.7842 -8.3177 -13.3117 -3.1951 1.9963zm49.6798 7.708l0 0 1.6499 -4.7918 4.6228 1.5931 0.6877 -1.9935 -4.6233 -1.5917 1.4064 -4.0922 4.7508 1.636 0.68 -1.9727 -8.6741 -2.9853 -5.109 14.841 9.5636 3.2929 0.6854 -1.9935 -5.6403 -1.9422zm26.8496 -0.9919l0 0 -1.4143 1.5349 3.3011 2.9702 -9.1072 10.117 3.0658 2.7609 9.1072 -10.1157 3.2513 2.9259 1.3949 -1.5488 -9.5989 -8.6445zm4.5065 23.57l0 0 3.8344 4.5715 -1.6151 1.3548 -6.5 -7.7468 12.0246 -10.0921 5.8946 7.0278 -1.5972 1.341 -3.2293 -3.8498 -3.3151 2.7818 3.142 3.7445 -1.6139 1.3562 -3.1434 -3.7431 -3.8815 3.2541zm18.1894 3.9979l0 0 -0.9158 -1.0162 -3.9661 3.5694 0.7066 0.7838c1.1995,1.3337 2.7719,1.575 4.0229,0.4501 1.2509,-1.125 1.2467,-2.5717 0.1524,-3.7871zm-2.0905 7.7344l0 0c0.0304,0.0338 2.4299,1.2231 5.08,-1.1639 2.2151,-1.9959 1.4712,-4.7338 -0.841,-7.3014l-4.2764 -4.7479 -11.6659 10.5035 2.761 3.0662 4.6325 -4.1721 1.3673 1.5163 -2.9534 6.6095 3.5062 2.8201 2.3896 -7.1303zm-59.0382 -49.8248l0 0 -0.1127 6.4114 -6.1665 -0.1067 0.1126 -6.4127 -4.1255 -0.0707 -0.273 15.6931 4.1245 0.0734 0.1253 -7.176 6.1645 0.108 -0.1253 7.1747 4.1286 0.072 0.2722 -15.6958 -4.1247 -0.0707zm22.3444 23.329l0 0c-2.3595,-1.4186 -3.4362,-3.0741 -3.8956,-4.6506l2.0824 -0.899c0.3395,1.1595 0.7168,2.3412 2.3311,3.3663 1.2588,0.7813 2.5663,0.5042 3.3157,-0.7439 0.6095,-1.0141 -0.2678,-2.603 -1.0176,-3.8762 -0.3192,-0.6178 -0.8688,-1.5584 -0.8688,-1.5584 -0.8539,-1.6292 -1.1797,-3.207 -0.0304,-5.1175 1.1367,-1.8937 3.8727,-2.4271 7.2294,-0.41 1.9508,1.1719 2.8125,2.5669 3.3957,4.113l-1.9007 0.8229c-0.2438,-0.8368 -0.7424,-2.0392 -1.95,-2.7651 -1.1519,-0.6927 -2.4113,-0.6276 -2.9512,0.2701 -0.505,0.8381 0.0284,1.7164 0.5987,2.8025 0.2952,0.6566 0.7252,1.1803 1.0754,1.9214 1.3032,2.5601 1.2947,3.9911 0.1994,5.7229 -1.489,2.4769 -4.6876,2.7581 -7.6135,1.0016zm-42.7919 -22.5061l0 0c2.3048,-0.489 3.7871,-0.1565 5.0279,0.3449l-0.4775 2.0004 -0.022 0.0042c-0.7087,-0.2868 -1.8294,-0.7675 -3.6469,-0.381 -2.5924,0.55 -4.8647,3.2569 -4.0359,7.1539 0.5599,2.6376 2.8097,5.7021 6.5757,4.9012 1.7936,-0.3809 2.6052,-1.2481 3.1273,-1.8452l1.4361 1.6388c-1.1375,1.0764 -2.3186,1.952 -4.4757,2.3634 -7.7987,1.6582 -10.2722,-3.4439 -10.9047,-6.2022 -1.1103,-5.1132 2.2562,-8.8841 7.3958,-9.9785zm83.2149 26.1038l0 0c-0.2161,-0.9309 -0.5209,-4.9068 0.9892,-7.0043 1.3937,-1.9338 2.6639,-1.2786 3.3469,-0.9766 0.3062,0.1358 1.2261,0.7328 1.4075,1.909 0.097,0.6317 -0.1012,1.5654 -0.5888,2.2511 -0.9558,1.2412 -3.128,2.0641 -3.128,2.0641 0,0 2.7845,5.4555 8.6846,10.8721l-0.0207 3.6822c-8.0792,-7.7911 -10.6907,-12.7977 -10.6907,-12.7977z"/>
   <path class="fil1" d="M164.0462 42.6917c0.7992,1.3757 2.8287,4.7448 7.9061,9.5034 0.8421,0.7896 2.9423,1.4477 4.1282,0.115 0.4558,-0.5112 0.7452,-1.2427 0.701,-2.0918 -0.054,-0.9767 -0.6554,-2.1168 -1.2344,-2.6128 -1.0127,-0.8699 -5.3793,-5.2781 -8.5073,-8.7414 -0.0678,0.6317 -0.6206,1.6859 -0.6206,1.6859 -0.4197,0.5929 -0.9447,1.4449 -2.373,2.1417zm-150.4953 13.7011l0 0 -0.0206 -3.4773c5.9028,-5.4181 8.6904,-10.8555 8.6904,-10.8555 0,0 -2.1729,-0.8229 -3.1279,-2.0641 -0.4895,-0.6857 -0.6885,-1.6208 -0.5906,-2.2511 0.1835,-1.1762 1.1021,-1.7719 1.4076,-1.909 0.6821,-0.302 1.9527,-0.9586 3.3444,0.9766 1.5106,2.0974 1.1152,6.0471 0.9002,6.9766 0.0021,0 -2.7496,4.7932 -10.6035,12.6039z"/>
   <path class="fil1" d="M20.0931 42.6917c-0.7971,1.3757 -2.8264,4.7448 -7.9041,9.5034 -0.8428,0.7896 -2.9427,1.4477 -4.1268,0.115 -0.4565,-0.5112 -0.7474,-1.2427 -0.702,-2.0918 0.0528,-0.9767 0.6545,-2.1168 1.2337,-2.6128 1.0131,-0.8699 5.3794,-5.2781 8.506,-8.7414 0.0685,0.6317 0.6211,1.6859 0.6211,1.6859 0.4208,0.5929 0.9466,1.4449 2.3721,2.1417z"/>
   <path class="fil5" d="M3.691 101.4767c0,-7.2217 5.8547,-13.0766 13.0761,-13.0766 7.2229,0 13.0763,5.855 13.0763,13.0766 0,7.2244 -5.8547,13.076 -13.0763,13.076 -7.2215,0 -13.0761,-5.8525 -13.0761,-13.076z"/>
   <path class="fil1" d="M23.8013 92.0069c0.2248,0.1795 0.7916,0.6453 0.7916,0.6453 1.1334,1.0143 2.1542,2.2002 2.7457,3.6194 0.7485,1.785 -1.5573,4.4683 -2.2322,5.0988 -3.0498,2.8456 -4.9458,2.7982 -6.0349,2.9553 -1.0903,0.1536 -1.7765,-0.5186 -1.7533,-1.335 0.0695,-2.4007 1.7711,-6.4923 2.2508,-7.2485 0.3146,-0.4944 0.8552,-0.8095 0.8552,-0.8095 1.1249,-0.3154 2.216,-0.7993 2.7825,-1.4403 0.568,-0.6398 0.5945,-1.4856 0.5945,-1.4856zm-10.9419 -1.7257l0 0c-0.447,0.1499 -0.7168,0.8696 -0.7146,1.2295 0,0.3615 0.3121,1.1808 1.7153,1.6204 1.4021,0.4362 3.3832,1.0782 4.9962,1.0782 1.6153,0 4.0414,-0.5238 4.0414,-2.0618 0,-0.4746 -0.1265,-0.8108 -0.5463,-1.0754 -1.6554,-1.0483 -3.6012,-1.4298 -5.6448,-1.4298 -1.3086,0.0055 -2.6073,0.2213 -3.8473,0.6389zm-5.1726 18.8416l0 0c-1.6469,-1.6266 -2.8214,-4.5502 -2.8214,-7.6376 0,-1.1964 0.1762,-2.3498 0.505,-3.4392 0,0 0.2775,-0.4966 0.5472,-0.0715 0.1923,0.3007 0.4525,0.6093 0.6866,1.0217 0.2359,0.4124 1.515,1.3832 1.3961,2.1495 -0.4505,2.8914 -0.0446,6.7502 0.0905,7.3827 0.1359,0.6292 -0.0621,0.9319 -0.404,0.5944zm0.3143 -9.9158l0 0c0.583,0.3235 0.6769,-0.0454 0.7643,-0.4047 0.388,-1.5776 1.9813,-4.3673 2.3407,-4.8161 0.3615,-0.4513 0.24,-1.0321 0.2339,-1.3001 -0.0051,-0.2731 -0.1445,-0.716 -0.1445,-0.9962 0,-0.5039 -0.3151,-0.4946 -0.5187,-0.4005 -1.7774,0.823 -3.1491,2.3742 -4.1119,4.0767 -0.2202,0.3891 -0.2294,1.2748 -0.0682,1.5919 0.2265,0.4429 0.9213,1.9272 1.5044,2.249zm8.9584 14.1164l0 0c0.675,0.0224 0.6822,-0.4325 0.2365,-1.6323 -0.6865,-1.849 -1.0911,-4.8657 -0.9566,-7.8903 0.1492,-3.3507 1.5069,-6.1849 1.9115,-7.354 0.404,-1.1714 -0.2697,-1.3053 -0.8999,-1.4411 -0.6309,-0.1363 -1.4708,-0.3111 -1.8905,-0.4386 -0.7753,-0.2343 -1.0354,-0.37 -1.7114,-0.5518 -0.6756,-0.1789 -1.5762,-0.0885 -1.9811,0.6305 -0.4046,0.7215 -2.9466,4.4294 -2.9466,10.5971 0,1.9116 0.5469,5.6492 2.0072,6.4665 1.414,0.7904 3.7986,1.6159 5.9782,1.6159 0.0845,0 0.1687,-0.0062 0.2528,-0.0019zm3.1053 -0.4797l0 0c4.8635,-1.5772 8.4829,-5.9865 8.4839,-11.3593 0,-0.796 -0.1529,-1.5435 -0.2274,-1.9557 -0.0919,-0.5063 -0.4717,-0.5685 -0.6465,-0.2185 -0.176,0.3503 -1.0103,2.1395 -2.9361,3.723 -1.9267,1.5834 -4.0277,2.4471 -6.9832,2.5208 -0.3453,0.0085 -0.525,0.5471 -0.525,1.0458 0,0.4946 0.3143,4.2301 1.5299,5.6176 0.3154,0.3628 0.6273,0.8446 1.3044,0.6263z"/>
   <path class="fil5" d="M180.6646 101.4767c0,-7.2217 -5.8545,-13.0766 -13.0748,-13.0766 -7.2245,0 -13.076,5.855 -13.076,13.0766 0,7.2244 5.8531,13.076 13.076,13.076 7.2204,0 13.0748,-5.8525 13.0748,-13.076z"/>
   <path class="fil1" d="M161.1466 93.4916c0.5666,0.6411 1.6582,1.125 2.7831,1.44 0,0 0.5417,0.3154 0.8548,0.8098 0.4808,0.7559 2.1805,4.8478 2.254,7.2487 0.0207,0.8148 -0.6637,1.4885 -1.7553,1.3344 -1.0888,-0.1558 -2.9853,-0.1097 -6.0332,-2.9552 -0.6759,-0.6305 -2.9825,-3.3134 -2.233,-5.0986 0.5901,-1.4191 1.6124,-2.605 2.747,-3.6193 0,0 0.5639,-0.4661 0.791,-0.6453 -0.0013,0.0009 0.0264,0.8467 0.5915,1.4856zm11.0675 -1.9809l0 0c0,-0.3599 -0.273,-1.0796 -0.7163,-1.2295 -1.2108,-0.4007 -2.5004,-0.6389 -3.8483,-0.6389 -2.0434,0 -3.9897,0.3815 -5.6454,1.4298 -0.4182,0.2646 -0.5457,0.6008 -0.5457,1.0754 0,1.539 2.4257,2.0618 4.0423,2.0618 1.6139,0 3.5935,-0.642 4.9983,-1.0782 1.4019,-0.4396 1.715,-1.2589 1.715,-1.6204zm4.0507 17.0164l0 0c0.133,-0.6325 0.5388,-4.4913 0.0899,-7.3823 -0.1191,-0.7663 1.1596,-1.7376 1.3964,-2.15 0.2342,-0.4118 0.4946,-0.7209 0.6858,-1.0215 0.2688,-0.4239 0.5472,0.072 0.5472,0.072 0.3367,1.1152 0.5071,2.274 0.5071,3.4391 0,3.0869 -1.1762,6.0105 -2.8247,7.6376 -0.3394,0.3383 -0.5389,0.0356 -0.4017,-0.5949zm-0.6761 -9.724l0 0c0.0886,0.3585 0.1828,0.7274 0.7646,0.4048 0.5819,-0.3214 1.2787,-1.8058 1.5032,-2.2487 0.1635,-0.3175 0.1524,-1.2028 -0.068,-1.5918 -0.9613,-1.7038 -2.3343,-3.255 -4.113,-4.0773 -0.2021,-0.094 -0.5166,-0.1032 -0.5166,0.4006 0,0.2807 -0.1385,0.7235 -0.1469,0.9967 -0.0042,0.2675 -0.126,0.8483 0.2354,1.2996 0.3603,0.448 1.9548,3.2391 2.3413,4.8161zm-8.4284 12.8893l0 0c-0.4475,1.1985 -0.4391,1.6534 0.2382,1.6321 0.0818,-0.0042 0.1663,0.0022 0.2509,0.0022 2.1804,0 4.5646,-0.8256 5.9776,-1.6165 1.4616,-0.8181 2.0073,-4.5556 2.0073,-6.4661 0,-6.1681 -2.5406,-9.8761 -2.9465,-10.597 -0.4058,-0.719 -1.3077,-0.81 -1.981,-0.6304 -0.6774,0.1804 -0.9379,0.3161 -1.7094,0.5512 -0.4212,0.1274 -1.2607,0.3026 -1.8923,0.4385 -0.6305,0.1359 -1.3065,0.2703 -0.9005,1.4413 0.4059,1.1701 1.762,4.0031 1.9104,7.3539 0.137,3.0251 -0.2689,6.0413 -0.9546,7.8908zm-11.3514 -10.208l0 0c0,5.3729 3.617,9.7821 8.4811,11.3593 0.6787,0.2183 0.9905,-0.2635 1.305,-0.6263 1.2176,-1.3874 1.5307,-5.123 1.5307,-5.6176 0,-0.4975 -0.1814,-1.0373 -0.525,-1.0458 -2.9549,-0.0749 -5.0564,-0.9374 -6.9836,-2.5208 -1.9241,-1.5835 -2.7595,-3.3727 -2.9355,-3.723 -0.1758,-0.35 -0.5541,-0.2878 -0.6441,0.2185 -0.0762,0.4112 -0.2286,1.1586 -0.2286,1.9557z"/>
   <path class="fil6" d="M154.5677 101.4086c-0.0028,-3.487 1.3825,-6.8318 3.8512,-9.2941 2.3785,-2.3783 5.6647,-3.8491 9.2928,-3.8491 3.6281,0 6.9156,1.4708 9.2928,3.8491 2.3786,2.3775 3.8483,5.664 3.8483,9.2941 0,3.6297 -1.4711,6.9153 -3.8483,9.2927 -2.3772,2.3773 -5.6634,3.8481 -9.2928,3.8481 -3.4869,0.0041 -6.8312,-1.3806 -9.2956,-3.8481 -2.4672,-2.4626 -3.8512,-5.807 -3.8484,-9.2927zm0.1343 0l0 0c0,3.5928 1.4561,6.8445 3.8096,9.1986 2.3552,2.3557 5.6066,3.8118 9.2014,3.8118 3.5935,0 6.845,-1.4561 9.2015,-3.8096 2.3523,-2.3553 3.8082,-5.6066 3.8082,-9.2008 0,-3.5945 -1.4559,-6.8451 -3.8111,-9.2002 -2.4367,-2.4434 -5.7478,-3.8147 -9.1986,-3.81 -3.4521,-0.0042 -6.7618,1.3676 -9.1999,3.8114 -2.4437,2.4364 -3.8153,5.7474 -3.8111,9.1988z"/>
  </g>
 </g>
</svg>
