<svg width="1024" height="1024" viewBox="0 0 1024 1024" fill="none" xmlns="http://www.w3.org/2000/svg">
<g clip-path="url(#clip0_414_2)">
<path d="M665.488 512.323L819.109 665.481L665.488 818.639L511.866 665.481L665.488 512.323Z" fill="#3998FF"/>
<path d="M358.102 512.186L511.655 665.276L358.102 818.366L204.549 665.276L358.102 512.186Z" fill="#D763FF"/>
<path d="M204.759 359.294L358.518 512.589L204.759 665.884L51 512.589L204.759 359.294Z" fill="#FFB800"/>
<path d="M665.618 206L819.377 359.295L665.618 512.59L511.859 359.295L665.618 206Z" fill="#8A88FF"/>
<path d="M358.384 206L512.143 359.295L358.384 512.59L204.625 359.295L358.384 206Z" fill="#FF7979"/>
<path d="M511.992 359.294L665.751 512.589L511.992 665.884L358.233 512.589L511.992 359.294Z" fill="#3A36FF"/>
<path d="M819.241 359.161L973 512.456L819.241 665.751L665.482 512.456L819.241 359.161Z" fill="#19E6F3"/>
</g>
<defs>
<clipPath id="clip0_414_2">
<rect width="1024" height="1024" fill="white"/>
</clipPath>
</defs>
</svg>
