<?xml version="1.0" encoding="utf-8"?>
<!-- Generator: Adobe Illustrator 27.5.0, SVG Export Plug-In . SVG Version: 6.00 Build 0)  -->
<svg version="1.1" id="katman_1" xmlns="http://www.w3.org/2000/svg" xmlns:xlink="http://www.w3.org/1999/xlink" x="0px" y="0px"
	 viewBox="0 0 841.89 595.28" style="enable-background:new 0 0 841.89 595.28;" xml:space="preserve">
<style type="text/css">
	.st0{fill:#E30613;}
</style>
<path class="st0" d="M380.28,335.59v22.01h-50.61l-10.22-11.4c-1.73-1.93-2.69-4.44-2.69-7.03v-90.62h22.68v87.04H380.28z"/>
<path class="st0" d="M553.01,335.59v22.01H502.4l-10.22-11.4c-1.73-1.93-2.69-4.44-2.69-7.03v-90.62h22.68v87.04H553.01z"/>
<rect x="565.78" y="248.55" class="st0" width="22.68" height="109.05"/>
<line class="st0" x1="684.91" y1="279.81" x2="684.7" y2="279.81"/>
<path class="st0" d="M460.12,279.81l-6.07-23.62c-1.16-4.5-5.21-7.64-9.85-7.64h-26.51l-8.03,31.26l-17.23,67.05
	c-0.38,1.47-0.57,2.98-0.57,4.5v6.24h20.32l4.23-16.47l33.75-16.11l8.38,32.57h19.01v-9.89L460.12,279.81z M421.88,319.88
	l10.3-40.07l3.2-12.42l3.19,12.42l10.3,40.07H421.88z"/>
<path class="st0" d="M760.56,279.81l-6.07-23.62c-1.16-4.5-5.21-7.64-9.85-7.64h-26.51l-8.03,31.26l-17.23,67.05
	c-0.38,1.47-0.57,2.98-0.57,4.5v6.24h20.32l4.23-16.47l33.75-16.11l8.38,32.57H778v-9.89L760.56,279.81z M722.31,319.88l10.3-40.07
	l3.2-12.42l3.19,12.42l10.3,40.07H722.31z"/>
<path class="st0" d="M684.91,318.1v5.48c0,19.3-15.65,34.94-34.94,34.94h-10.42c-4.31,0-8.45-0.78-12.26-2.21
	c-13.25-4.97-22.68-17.75-22.68-32.73v-39.99c0-1.28,0.07-2.54,0.2-3.78c1.43-13.33,10.36-24.42,22.48-28.97
	c3.81-1.43,7.95-2.21,12.26-2.21h10.42c18.02,0,32.86,13.66,34.74,31.18h-21.97v-2.61c0-4.27-3.46-7.74-7.74-7.74h-19.83
	c-4.27,0-7.72,3.46-7.72,7.72v52.43c0,4.27,3.46,7.74,7.74,7.74H655c4.27,0,7.74-3.46,7.74-7.74v-14.11h-19.16V294h26.29l0.26,0.28
	l9.53,10.35C683.03,308.31,684.91,313.11,684.91,318.1z"/>
<polygon class="st0" points="670.13,294 670.13,294.28 669.87,294 "/>
<path class="st0" d="M109.04,307.03h45.12l-68.67,34.88L84.79,341l-15.08-19.83c-7.11-9.36-7.31-22.25-0.48-31.82l56.69-79.43h52.42
	L109.04,307.03z"/>
<path class="st0" d="M167.71,371.64h52.86l-80.61,40.82l-0.37-0.49l-17.79-23.4c-7.04-9.27-7.31-22.02-0.65-31.57l102.49-147.08
	h56.77L167.71,371.64z"/>
<line class="st0" x1="154.5" y1="306.86" x2="154.16" y2="307.03"/>
<line class="st0" x1="154.53" y1="307.03" x2="154.16" y2="307.03"/>
</svg>
